<?xml version="1.0" encoding="UTF-8"?>
<svg width="60px" height="60px" viewBox="0 0 60 60" version="1.1" xmlns="http://www.w3.org/2000/svg" xmlns:xlink="http://www.w3.org/1999/xlink">
    <!-- Generator: Sketch 47.1 (45422) - http://www.bohemiancoding.com/sketch -->
    <title>ic_purse</title>
    <desc>Created with Sketch.</desc>
    <defs></defs>
    <g id="05.-История-платежей" stroke="none" stroke-width="1" fill="none" fill-rule="evenodd">
        <g id="05.01-Payments" transform="translate(-219.000000, -190.000000)" fill="#FFFFFF">
            <g id="Group-8" transform="translate(180.000000, 169.000000)">
                <g id="ic_purse" transform="translate(39.000000, 21.000000)">
                    <path d="M54,26.1255508 C55.7249621,26.57 57,28.142165 57,29.9999433 L57,31.0000567 C57,32.8648971 55.7232125,34.4316742 54,34.8747176 L54,42.0031815 C54,45.3151329 51.3164587,48 47.9936134,48 L12.0063866,48 C8.68915086,48 6,45.3117245 6,42.0031815 L6,18.9968185 C6,15.6848671 8.68354127,13 12.0063866,13 L47.9936134,13 C51.3108491,13 54,15.6882755 54,18.9968185 L54,26.1255508 Z M51,26 L51,18.9968185 C51,17.3447602 49.6536228,16 47.9936134,16 L12.0063866,16 C10.341696,16 9,17.3404234 9,18.9968185 L9,42.0031815 C9,43.6552398 10.3463772,45 12.0063866,45 L47.9936134,45 C49.658304,45 51,43.6595766 51,42.0031815 L51,35 L42.9947834,35 C40.7885255,35 39,33.2003465 39,31.0000567 L39,29.9999433 C39,27.7908356 40.7917156,26 42.9947834,26 L51,26 Z M42,31.0000567 C42,31.5484235 42.4503083,32 42.9947834,32 L53.0052166,32 C53.5520352,32 54,31.5517039 54,31.0000567 L54,29.9999433 C54,29.4515765 53.5496917,29 53.0052166,29 L42.9947834,29 C42.4479648,29 42,29.4482961 42,29.9999433 L42,31.0000567 Z" id="Combined-Shape"></path>
                </g>
            </g>
        </g>
    </g>
</svg>